<mxfile host="65bd71144e">
    <diagram id="W4wakAxeEz3WiYrWmgnn" name="mfe">
        <mxGraphModel dx="1174" dy="927" grid="1" gridSize="10" guides="1" tooltips="1" connect="1" arrows="1" fold="1" page="1" pageScale="1" pageWidth="827" pageHeight="1169" background="#FFFFFF" math="0" shadow="0">
            <root>
                <mxCell id="0"/>
                <mxCell id="1" parent="0"/>
                <mxCell id="147" value="" style="rounded=0;whiteSpace=wrap;html=1;fillColor=#bac8d3;strokeColor=#23445d;strokeWidth=2;dashed=1;" vertex="1" parent="1">
                    <mxGeometry x="920" y="36.5" width="200" height="433.5" as="geometry"/>
                </mxCell>
                <mxCell id="141" style="edgeStyle=entityRelationEdgeStyle;html=1;fontColor=#003366;strokeColor=#1A1A1A;entryX=0;entryY=0.5;entryDx=0;entryDy=0;" edge="1" parent="1" source="115" target="147">
                    <mxGeometry relative="1" as="geometry"/>
                </mxCell>
                <mxCell id="115" value="" style="rounded=0;whiteSpace=wrap;html=1;fillColor=#CCE5FF;strokeColor=#003366;strokeWidth=2;dashed=1;" vertex="1" parent="1">
                    <mxGeometry x="430" y="368.5" width="360" height="100" as="geometry"/>
                </mxCell>
                <mxCell id="116" value="MICRO FRONT END&lt;br&gt;&lt;span style=&quot;font-weight: 400&quot;&gt;Visitas&lt;/span&gt;" style="text;html=1;strokeColor=none;fillColor=none;align=left;verticalAlign=middle;whiteSpace=wrap;rounded=0;dashed=1;fontColor=#003366;fontStyle=1" vertex="1" parent="1">
                    <mxGeometry x="440" y="378.5" width="140" height="30" as="geometry"/>
                </mxCell>
                <mxCell id="140" style="edgeStyle=entityRelationEdgeStyle;html=1;fontColor=#003366;strokeColor=#1A1A1A;" edge="1" parent="1" source="111" target="147">
                    <mxGeometry relative="1" as="geometry"/>
                </mxCell>
                <mxCell id="111" value="" style="rounded=0;whiteSpace=wrap;html=1;fillColor=#CCE5FF;strokeColor=#003366;strokeWidth=2;dashed=1;" vertex="1" parent="1">
                    <mxGeometry x="430" y="260" width="360" height="100" as="geometry"/>
                </mxCell>
                <mxCell id="112" value="MICRO FRONT END&lt;br&gt;&lt;span style=&quot;font-weight: 400&quot;&gt;Solicitações&lt;/span&gt;" style="text;html=1;strokeColor=none;fillColor=none;align=left;verticalAlign=middle;whiteSpace=wrap;rounded=0;dashed=1;fontColor=#003366;fontStyle=1" vertex="1" parent="1">
                    <mxGeometry x="440" y="270" width="140" height="30" as="geometry"/>
                </mxCell>
                <mxCell id="138" style="edgeStyle=entityRelationEdgeStyle;html=1;entryX=0;entryY=0.5;entryDx=0;entryDy=0;fontColor=#003366;strokeColor=#1A1A1A;" edge="1" parent="1" source="109" target="147">
                    <mxGeometry relative="1" as="geometry"/>
                </mxCell>
                <mxCell id="109" value="" style="rounded=0;whiteSpace=wrap;html=1;fillColor=#CCE5FF;strokeColor=#003366;strokeWidth=2;dashed=1;" vertex="1" parent="1">
                    <mxGeometry x="430" y="149.5" width="360" height="100" as="geometry"/>
                </mxCell>
                <mxCell id="139" style="edgeStyle=entityRelationEdgeStyle;html=1;fontColor=#003366;strokeColor=#1A1A1A;" edge="1" parent="1" source="102" target="147">
                    <mxGeometry relative="1" as="geometry"/>
                </mxCell>
                <mxCell id="102" value="" style="rounded=0;whiteSpace=wrap;html=1;fillColor=#CCE5FF;strokeColor=#003366;strokeWidth=2;dashed=1;" vertex="1" parent="1">
                    <mxGeometry x="430" y="40" width="360" height="100" as="geometry"/>
                </mxCell>
                <mxCell id="103" value="MICRO FRONT END&lt;br&gt;&lt;span style=&quot;font-weight: 400&quot;&gt;Perfil&lt;/span&gt;" style="text;html=1;strokeColor=none;fillColor=none;align=left;verticalAlign=middle;whiteSpace=wrap;rounded=0;dashed=1;fontColor=#003366;fontStyle=1" vertex="1" parent="1">
                    <mxGeometry x="440" y="50" width="140" height="30" as="geometry"/>
                </mxCell>
                <mxCell id="142" style="html=1;entryX=0.5;entryY=1;entryDx=0;entryDy=0;fontColor=#003366;strokeColor=#1A1A1A;exitX=0.5;exitY=1;exitDx=0;exitDy=0;edgeStyle=orthogonalEdgeStyle;" edge="1" parent="1" source="58" target="147">
                    <mxGeometry relative="1" as="geometry">
                        <mxPoint x="330" y="578.5" as="targetPoint"/>
                        <Array as="points">
                            <mxPoint x="195" y="500"/>
                            <mxPoint x="1020" y="500"/>
                        </Array>
                    </mxGeometry>
                </mxCell>
                <mxCell id="58" value="" style="rounded=0;whiteSpace=wrap;html=1;fillColor=#b0e3e6;strokeColor=#0e8088;strokeWidth=2;dashed=1;" vertex="1" parent="1">
                    <mxGeometry x="40" y="40" width="310" height="430" as="geometry"/>
                </mxCell>
                <mxCell id="64" value="Página Home" style="rounded=1;whiteSpace=wrap;html=1;" vertex="1" parent="1">
                    <mxGeometry x="440" y="90" width="120" height="40" as="geometry"/>
                </mxCell>
                <mxCell id="66" value="Página de &lt;br&gt;Cadastro Usuário" style="rounded=1;whiteSpace=wrap;html=1;" vertex="1" parent="1">
                    <mxGeometry x="570" y="90" width="120" height="40" as="geometry"/>
                </mxCell>
                <mxCell id="68" value="Página&amp;nbsp;de &lt;br&gt;Liberações" style="rounded=1;whiteSpace=wrap;html=1;" vertex="1" parent="1">
                    <mxGeometry x="440" y="310" width="120" height="40" as="geometry"/>
                </mxCell>
                <mxCell id="70" value="Página&amp;nbsp;de &lt;br&gt;Liberação por ID" style="rounded=1;whiteSpace=wrap;html=1;" vertex="1" parent="1">
                    <mxGeometry x="570" y="310" width="120" height="40" as="geometry"/>
                </mxCell>
                <mxCell id="71" value="" style="edgeStyle=orthogonalEdgeStyle;curved=1;html=1;strokeColor=#003366;" edge="1" parent="1" source="72" target="83">
                    <mxGeometry relative="1" as="geometry"/>
                </mxCell>
                <mxCell id="107" style="edgeStyle=none;html=1;entryX=0;entryY=0.5;entryDx=0;entryDy=0;strokeColor=#1A1A1A;" edge="1" parent="1" source="72" target="106">
                    <mxGeometry relative="1" as="geometry"/>
                </mxCell>
                <mxCell id="72" value="main.js" style="rounded=1;whiteSpace=wrap;html=1;" vertex="1" parent="1">
                    <mxGeometry x="50" y="165" width="120" height="40" as="geometry"/>
                </mxCell>
                <mxCell id="74" value="Página&amp;nbsp;de &lt;br&gt;Solicitações" style="rounded=1;whiteSpace=wrap;html=1;" vertex="1" parent="1">
                    <mxGeometry x="440" y="199.5" width="120" height="40" as="geometry"/>
                </mxCell>
                <mxCell id="76" value="Página&amp;nbsp;de &lt;br&gt;Visitas" style="rounded=1;whiteSpace=wrap;html=1;verticalAlign=top;" vertex="1" parent="1">
                    <mxGeometry x="440" y="420" width="120" height="40" as="geometry"/>
                </mxCell>
                <mxCell id="78" value="Página de &lt;br&gt;Login" style="rounded=1;whiteSpace=wrap;html=1;" vertex="1" parent="1">
                    <mxGeometry x="130" y="368.5" width="120" height="40" as="geometry"/>
                </mxCell>
                <mxCell id="79" style="edgeStyle=entityRelationEdgeStyle;html=1;exitX=1;exitY=0.5;exitDx=0;exitDy=0;entryX=0;entryY=0.5;entryDx=0;entryDy=0;strokeColor=#003366;" edge="1" parent="1" source="83" target="105">
                    <mxGeometry relative="1" as="geometry"/>
                </mxCell>
                <mxCell id="80" value="SIM" style="edgeLabel;html=1;align=center;verticalAlign=middle;resizable=0;points=[];" vertex="1" connectable="0" parent="79">
                    <mxGeometry x="-0.1491" y="-15" relative="1" as="geometry">
                        <mxPoint x="-6" y="-15" as="offset"/>
                    </mxGeometry>
                </mxCell>
                <mxCell id="81" style="edgeStyle=orthogonalEdgeStyle;curved=1;html=1;exitX=0.5;exitY=1;exitDx=0;exitDy=0;strokeColor=#003366;" edge="1" parent="1" source="83" target="78">
                    <mxGeometry relative="1" as="geometry"/>
                </mxCell>
                <mxCell id="82" value="NÂO" style="edgeLabel;html=1;align=center;verticalAlign=middle;resizable=0;points=[];" vertex="1" connectable="0" parent="81">
                    <mxGeometry x="-0.0303" y="2" relative="1" as="geometry">
                        <mxPoint x="2" y="3" as="offset"/>
                    </mxGeometry>
                </mxCell>
                <mxCell id="83" value="usuário&lt;br&gt;logado" style="rhombus;whiteSpace=wrap;html=1;strokeColor=#999999;fillColor=#FFFFFF;fontColor=#1A1A1A;" vertex="1" parent="1">
                    <mxGeometry x="76.88999999999999" y="240" width="66.22" height="70" as="geometry"/>
                </mxCell>
                <mxCell id="93" value="MICRO FRONT END&lt;br&gt;&lt;span style=&quot;font-weight: 400&quot;&gt;Principal&lt;/span&gt;" style="text;html=1;strokeColor=none;fillColor=none;align=left;verticalAlign=middle;whiteSpace=wrap;rounded=0;dashed=1;fontColor=#003366;fontStyle=1" vertex="1" parent="1">
                    <mxGeometry x="50" y="50" width="130" height="30" as="geometry"/>
                </mxCell>
                <mxCell id="94" style="edgeStyle=none;html=1;entryX=0.5;entryY=0;entryDx=0;entryDy=0;fontColor=#003366;strokeColor=#000000;" edge="1" parent="1" source="95" target="72">
                    <mxGeometry relative="1" as="geometry"/>
                </mxCell>
                <mxCell id="95" value="INDEX.HTML" style="rounded=1;whiteSpace=wrap;html=1;dashed=1;fontColor=#003366;strokeColor=#B3B3B3;strokeWidth=1;fillColor=#FFFFFF;" vertex="1" parent="1">
                    <mxGeometry x="50" y="105" width="120" height="40" as="geometry"/>
                </mxCell>
                <mxCell id="108" style="edgeStyle=entityRelationEdgeStyle;html=1;entryX=0;entryY=0.5;entryDx=0;entryDy=0;strokeColor=#1A1A1A;" edge="1" parent="1" source="105" target="102">
                    <mxGeometry relative="1" as="geometry"/>
                </mxCell>
                <mxCell id="113" style="edgeStyle=entityRelationEdgeStyle;html=1;entryX=0;entryY=0.5;entryDx=0;entryDy=0;strokeColor=#1A1A1A;" edge="1" parent="1" source="105" target="109">
                    <mxGeometry relative="1" as="geometry"/>
                </mxCell>
                <mxCell id="114" style="edgeStyle=entityRelationEdgeStyle;html=1;entryX=0;entryY=0.5;entryDx=0;entryDy=0;strokeColor=#1A1A1A;" edge="1" parent="1" source="105" target="111">
                    <mxGeometry relative="1" as="geometry"/>
                </mxCell>
                <mxCell id="117" style="edgeStyle=entityRelationEdgeStyle;html=1;strokeColor=#1A1A1A;" edge="1" parent="1" source="105" target="115">
                    <mxGeometry relative="1" as="geometry"/>
                </mxCell>
                <mxCell id="105" value="MFE" style="rounded=0;whiteSpace=wrap;html=1;fillColor=#6d8764;strokeColor=#3A5431;fontColor=#ffffff;" vertex="1" parent="1">
                    <mxGeometry x="210" y="255" width="120" height="40" as="geometry"/>
                </mxCell>
                <mxCell id="106" value="Registrar os MFE" style="rounded=1;whiteSpace=wrap;html=1;" vertex="1" parent="1">
                    <mxGeometry x="210" y="165" width="120" height="40" as="geometry"/>
                </mxCell>
                <mxCell id="110" value="MICRO FRONT END&lt;br&gt;&lt;span style=&quot;font-weight: 400&quot;&gt;Solicitações&lt;/span&gt;" style="text;html=1;strokeColor=none;fillColor=none;align=left;verticalAlign=middle;whiteSpace=wrap;rounded=0;dashed=1;fontColor=#003366;fontStyle=1" vertex="1" parent="1">
                    <mxGeometry x="440" y="159.5" width="140" height="30" as="geometry"/>
                </mxCell>
                <mxCell id="144" value="&lt;font color=&quot;#003366&quot;&gt;MFE&lt;br&gt;utfpr core shared&lt;br&gt;&lt;/font&gt;" style="rounded=0;whiteSpace=wrap;html=1;fillColor=#CCE5FF;strokeColor=#1A1A1A;" vertex="1" parent="1">
                    <mxGeometry x="936" y="80" width="170" height="40" as="geometry"/>
                </mxCell>
                <mxCell id="145" value="NPM&lt;br&gt;utfpr react ui" style="rounded=0;whiteSpace=wrap;html=1;fillColor=#647687;strokeColor=#314354;fontColor=#ffffff;" vertex="1" parent="1">
                    <mxGeometry x="936" y="130" width="170" height="40" as="geometry"/>
                </mxCell>
                <mxCell id="146" value="NPM&lt;br&gt;utfpr&amp;nbsp;react tools" style="rounded=0;whiteSpace=wrap;html=1;fillColor=#647687;strokeColor=#314354;fontColor=#ffffff;" vertex="1" parent="1">
                    <mxGeometry x="936" y="179.5" width="170" height="40" as="geometry"/>
                </mxCell>
                <mxCell id="150" value="COMPARTILHADO" style="text;html=1;strokeColor=none;fillColor=none;align=left;verticalAlign=middle;whiteSpace=wrap;rounded=0;dashed=1;fontColor=#003366;fontStyle=1" vertex="1" parent="1">
                    <mxGeometry x="936" y="46" width="140" height="30" as="geometry"/>
                </mxCell>
            </root>
        </mxGraphModel>
    </diagram>
</mxfile>